<mxfile host="app.diagrams.net" agent="Mozilla/5.0 (Macintosh; Intel Mac OS X 10_15_7) AppleWebKit/537.36 (KHTML, like Gecko) Chrome/129.0.0.0 Safari/537.36" version="24.7.17">
  <diagram name="第 1 页" id="IoDN4YejWcpYqLMCEsrB">
    <mxGraphModel dx="1590" dy="1008" grid="1" gridSize="10" guides="1" tooltips="1" connect="1" arrows="1" fold="1" page="1" pageScale="1" pageWidth="827" pageHeight="1169" math="0" shadow="0">
      <root>
        <mxCell id="0" />
        <mxCell id="1" parent="0" />
        <mxCell id="xa3RoZci5K0r1pljXXm6-1" value="" style="rounded=0;whiteSpace=wrap;html=1;" parent="1" vertex="1">
          <mxGeometry x="550" y="570" width="80" height="40" as="geometry" />
        </mxCell>
        <mxCell id="xa3RoZci5K0r1pljXXm6-4" value="visits" style="rounded=0;whiteSpace=wrap;html=1;" parent="1" vertex="1">
          <mxGeometry x="490" y="70" width="80" height="40" as="geometry" />
        </mxCell>
        <mxCell id="xa3RoZci5K0r1pljXXm6-26" value="" style="edgeStyle=orthogonalEdgeStyle;rounded=0;orthogonalLoop=1;jettySize=auto;html=1;" parent="1" source="xa3RoZci5K0r1pljXXm6-5" target="xa3RoZci5K0r1pljXXm6-16" edge="1">
          <mxGeometry relative="1" as="geometry" />
        </mxCell>
        <mxCell id="xa3RoZci5K0r1pljXXm6-5" value="restaurant" style="ellipse;whiteSpace=wrap;html=1;" parent="1" vertex="1">
          <mxGeometry x="130" y="240" width="80" height="40" as="geometry" />
        </mxCell>
        <mxCell id="xa3RoZci5K0r1pljXXm6-25" style="edgeStyle=orthogonalEdgeStyle;rounded=0;orthogonalLoop=1;jettySize=auto;html=1;exitX=1;exitY=0.5;exitDx=0;exitDy=0;entryX=0.5;entryY=1;entryDx=0;entryDy=0;" parent="1" source="xa3RoZci5K0r1pljXXm6-6" target="xa3RoZci5K0r1pljXXm6-12" edge="1">
          <mxGeometry relative="1" as="geometry" />
        </mxCell>
        <mxCell id="xa3RoZci5K0r1pljXXm6-6" value="rock" style="ellipse;whiteSpace=wrap;html=1;" parent="1" vertex="1">
          <mxGeometry x="240" y="440" width="80" height="40" as="geometry" />
        </mxCell>
        <mxCell id="xa3RoZci5K0r1pljXXm6-7" value="" style="ellipse;whiteSpace=wrap;html=1;" parent="1" vertex="1">
          <mxGeometry x="270" y="580" width="80" height="40" as="geometry" />
        </mxCell>
        <mxCell id="xa3RoZci5K0r1pljXXm6-8" value="spare time" style="ellipse;whiteSpace=wrap;html=1;" parent="1" vertex="1">
          <mxGeometry x="630" y="380" width="80" height="40" as="geometry" />
        </mxCell>
        <mxCell id="xa3RoZci5K0r1pljXXm6-9" value="weather" style="ellipse;whiteSpace=wrap;html=1;" parent="1" vertex="1">
          <mxGeometry x="350" y="220" width="80" height="40" as="geometry" />
        </mxCell>
        <mxCell id="xa3RoZci5K0r1pljXXm6-10" value="hobbies" style="ellipse;whiteSpace=wrap;html=1;" parent="1" vertex="1">
          <mxGeometry x="630" y="220" width="80" height="40" as="geometry" />
        </mxCell>
        <mxCell id="xa3RoZci5K0r1pljXXm6-11" value="companion" style="ellipse;whiteSpace=wrap;html=1;" parent="1" vertex="1">
          <mxGeometry x="630" y="160" width="80" height="40" as="geometry" />
        </mxCell>
        <mxCell id="xa3RoZci5K0r1pljXXm6-12" value="facilities" style="ellipse;whiteSpace=wrap;html=1;" parent="1" vertex="1">
          <mxGeometry x="350" y="340" width="80" height="40" as="geometry" />
        </mxCell>
        <mxCell id="xa3RoZci5K0r1pljXXm6-13" value="location" style="ellipse;whiteSpace=wrap;html=1;" parent="1" vertex="1">
          <mxGeometry x="350" y="280" width="80" height="40" as="geometry" />
        </mxCell>
        <mxCell id="xa3RoZci5K0r1pljXXm6-23" value="" style="edgeStyle=orthogonalEdgeStyle;rounded=0;orthogonalLoop=1;jettySize=auto;html=1;" parent="1" source="xa3RoZci5K0r1pljXXm6-14" target="xa3RoZci5K0r1pljXXm6-12" edge="1">
          <mxGeometry relative="1" as="geometry" />
        </mxCell>
        <mxCell id="xa3RoZci5K0r1pljXXm6-14" value="vegetation" style="ellipse;whiteSpace=wrap;html=1;" parent="1" vertex="1">
          <mxGeometry x="240" y="390" width="80" height="40" as="geometry" />
        </mxCell>
        <mxCell id="xa3RoZci5K0r1pljXXm6-22" value="" style="edgeStyle=orthogonalEdgeStyle;rounded=0;orthogonalLoop=1;jettySize=auto;html=1;" parent="1" source="xa3RoZci5K0r1pljXXm6-15" target="xa3RoZci5K0r1pljXXm6-12" edge="1">
          <mxGeometry relative="1" as="geometry" />
        </mxCell>
        <mxCell id="xa3RoZci5K0r1pljXXm6-15" value="trail" style="ellipse;whiteSpace=wrap;html=1;" parent="1" vertex="1">
          <mxGeometry x="240" y="340" width="80" height="40" as="geometry" />
        </mxCell>
        <mxCell id="xa3RoZci5K0r1pljXXm6-19" value="" style="edgeStyle=orthogonalEdgeStyle;rounded=0;orthogonalLoop=1;jettySize=auto;html=1;" parent="1" source="xa3RoZci5K0r1pljXXm6-16" target="xa3RoZci5K0r1pljXXm6-13" edge="1">
          <mxGeometry relative="1" as="geometry" />
        </mxCell>
        <mxCell id="xa3RoZci5K0r1pljXXm6-16" value="POI nearby" style="ellipse;whiteSpace=wrap;html=1;" parent="1" vertex="1">
          <mxGeometry x="240" y="280" width="80" height="40" as="geometry" />
        </mxCell>
        <mxCell id="xa3RoZci5K0r1pljXXm6-20" value="" style="edgeStyle=orthogonalEdgeStyle;rounded=0;orthogonalLoop=1;jettySize=auto;html=1;" parent="1" source="xa3RoZci5K0r1pljXXm6-17" target="xa3RoZci5K0r1pljXXm6-9" edge="1">
          <mxGeometry relative="1" as="geometry" />
        </mxCell>
        <mxCell id="xa3RoZci5K0r1pljXXm6-17" value="rain" style="ellipse;whiteSpace=wrap;html=1;" parent="1" vertex="1">
          <mxGeometry x="240" y="220" width="80" height="40" as="geometry" />
        </mxCell>
        <mxCell id="xa3RoZci5K0r1pljXXm6-21" value="" style="edgeStyle=orthogonalEdgeStyle;rounded=0;orthogonalLoop=1;jettySize=auto;html=1;" parent="1" source="xa3RoZci5K0r1pljXXm6-18" target="xa3RoZci5K0r1pljXXm6-9" edge="1">
          <mxGeometry relative="1" as="geometry" />
        </mxCell>
        <mxCell id="xa3RoZci5K0r1pljXXm6-18" value="temperature" style="ellipse;whiteSpace=wrap;html=1;" parent="1" vertex="1">
          <mxGeometry x="240" y="170" width="80" height="40" as="geometry" />
        </mxCell>
        <mxCell id="xa3RoZci5K0r1pljXXm6-27" value="" style="ellipse;whiteSpace=wrap;html=1;" parent="1" vertex="1">
          <mxGeometry x="280" y="590" width="80" height="40" as="geometry" />
        </mxCell>
        <mxCell id="xa3RoZci5K0r1pljXXm6-41" value="" style="edgeStyle=orthogonalEdgeStyle;rounded=0;orthogonalLoop=1;jettySize=auto;html=1;" parent="1" source="xa3RoZci5K0r1pljXXm6-28" target="xa3RoZci5K0r1pljXXm6-8" edge="1">
          <mxGeometry relative="1" as="geometry" />
        </mxCell>
        <mxCell id="xa3RoZci5K0r1pljXXm6-28" value="age" style="ellipse;whiteSpace=wrap;html=1;" parent="1" vertex="1">
          <mxGeometry x="747" y="430" width="80" height="40" as="geometry" />
        </mxCell>
        <mxCell id="xa3RoZci5K0r1pljXXm6-33" value="" style="edgeStyle=orthogonalEdgeStyle;rounded=0;orthogonalLoop=1;jettySize=auto;html=1;" parent="1" source="xa3RoZci5K0r1pljXXm6-29" target="xa3RoZci5K0r1pljXXm6-11" edge="1">
          <mxGeometry relative="1" as="geometry" />
        </mxCell>
        <mxCell id="xa3RoZci5K0r1pljXXm6-29" value="friends and family" style="ellipse;whiteSpace=wrap;html=1;" parent="1" vertex="1">
          <mxGeometry x="747" y="160" width="80" height="40" as="geometry" />
        </mxCell>
        <mxCell id="xa3RoZci5K0r1pljXXm6-34" value="" style="edgeStyle=orthogonalEdgeStyle;rounded=0;orthogonalLoop=1;jettySize=auto;html=1;" parent="1" source="xa3RoZci5K0r1pljXXm6-30" target="xa3RoZci5K0r1pljXXm6-11" edge="1">
          <mxGeometry relative="1" as="geometry" />
        </mxCell>
        <mxCell id="xa3RoZci5K0r1pljXXm6-30" value="pets" style="ellipse;whiteSpace=wrap;html=1;" parent="1" vertex="1">
          <mxGeometry x="747" y="110" width="80" height="40" as="geometry" />
        </mxCell>
        <mxCell id="xa3RoZci5K0r1pljXXm6-32" value="" style="edgeStyle=orthogonalEdgeStyle;rounded=0;orthogonalLoop=1;jettySize=auto;html=1;" parent="1" source="xa3RoZci5K0r1pljXXm6-31" target="xa3RoZci5K0r1pljXXm6-16" edge="1">
          <mxGeometry relative="1" as="geometry" />
        </mxCell>
        <mxCell id="xa3RoZci5K0r1pljXXm6-31" value="bath" style="ellipse;whiteSpace=wrap;html=1;" parent="1" vertex="1">
          <mxGeometry x="130" y="320" width="80" height="40" as="geometry" />
        </mxCell>
        <mxCell id="xa3RoZci5K0r1pljXXm6-40" value="" style="edgeStyle=orthogonalEdgeStyle;rounded=0;orthogonalLoop=1;jettySize=auto;html=1;" parent="1" source="xa3RoZci5K0r1pljXXm6-35" target="xa3RoZci5K0r1pljXXm6-8" edge="1">
          <mxGeometry relative="1" as="geometry" />
        </mxCell>
        <mxCell id="xa3RoZci5K0r1pljXXm6-35" value="career" style="ellipse;whiteSpace=wrap;html=1;" parent="1" vertex="1">
          <mxGeometry x="747" y="380" width="80" height="40" as="geometry" />
        </mxCell>
        <mxCell id="xa3RoZci5K0r1pljXXm6-39" value="" style="edgeStyle=orthogonalEdgeStyle;rounded=0;orthogonalLoop=1;jettySize=auto;html=1;" parent="1" source="xa3RoZci5K0r1pljXXm6-36" target="xa3RoZci5K0r1pljXXm6-10" edge="1">
          <mxGeometry relative="1" as="geometry" />
        </mxCell>
        <mxCell id="xa3RoZci5K0r1pljXXm6-36" value="bike riding" style="ellipse;whiteSpace=wrap;html=1;" parent="1" vertex="1">
          <mxGeometry x="747" y="270" width="80" height="40" as="geometry" />
        </mxCell>
        <mxCell id="xa3RoZci5K0r1pljXXm6-38" value="" style="edgeStyle=orthogonalEdgeStyle;rounded=0;orthogonalLoop=1;jettySize=auto;html=1;" parent="1" source="xa3RoZci5K0r1pljXXm6-37" target="xa3RoZci5K0r1pljXXm6-10" edge="1">
          <mxGeometry relative="1" as="geometry" />
        </mxCell>
        <mxCell id="xa3RoZci5K0r1pljXXm6-37" value="hiking" style="ellipse;whiteSpace=wrap;html=1;" parent="1" vertex="1">
          <mxGeometry x="747" y="220" width="80" height="40" as="geometry" />
        </mxCell>
        <mxCell id="xa3RoZci5K0r1pljXXm6-42" value="" style="ellipse;whiteSpace=wrap;html=1;" parent="1" vertex="1">
          <mxGeometry x="290" y="600" width="80" height="40" as="geometry" />
        </mxCell>
        <mxCell id="xa3RoZci5K0r1pljXXm6-43" value="" style="ellipse;whiteSpace=wrap;html=1;" parent="1" vertex="1">
          <mxGeometry x="300" y="610" width="80" height="40" as="geometry" />
        </mxCell>
        <mxCell id="xa3RoZci5K0r1pljXXm6-44" value="" style="ellipse;whiteSpace=wrap;html=1;" parent="1" vertex="1">
          <mxGeometry x="310" y="620" width="80" height="40" as="geometry" />
        </mxCell>
        <mxCell id="xa3RoZci5K0r1pljXXm6-45" value="time" style="ellipse;whiteSpace=wrap;html=1;" parent="1" vertex="1">
          <mxGeometry x="350" y="110" width="80" height="40" as="geometry" />
        </mxCell>
        <mxCell id="xa3RoZci5K0r1pljXXm6-46" value="" style="rounded=0;whiteSpace=wrap;html=1;" parent="1" vertex="1">
          <mxGeometry x="560" y="580" width="80" height="40" as="geometry" />
        </mxCell>
        <mxCell id="xa3RoZci5K0r1pljXXm6-47" value="" style="rounded=0;whiteSpace=wrap;html=1;" parent="1" vertex="1">
          <mxGeometry x="570" y="590" width="80" height="40" as="geometry" />
        </mxCell>
        <mxCell id="xa3RoZci5K0r1pljXXm6-48" value="cross correlation&lt;div&gt;...&lt;/div&gt;" style="rounded=0;whiteSpace=wrap;html=1;" parent="1" vertex="1">
          <mxGeometry x="1420" y="640" width="60" height="60" as="geometry" />
        </mxCell>
        <mxCell id="xa3RoZci5K0r1pljXXm6-49" value="other features" style="rounded=0;whiteSpace=wrap;html=1;" parent="1" vertex="1">
          <mxGeometry x="1040" y="570" width="80" height="40" as="geometry" />
        </mxCell>
        <mxCell id="xa3RoZci5K0r1pljXXm6-50" value="park1&lt;div&gt;visits count&lt;/div&gt;" style="rounded=0;whiteSpace=wrap;html=1;" parent="1" vertex="1">
          <mxGeometry x="1530" y="570" width="80" height="40" as="geometry" />
        </mxCell>
        <mxCell id="yd0O2rHegaEqOnrl_HZZ-1" value="" style="shape=table;startSize=0;container=1;collapsible=0;childLayout=tableLayout;fontSize=16;" vertex="1" parent="1">
          <mxGeometry x="980" y="20" width="550" height="370" as="geometry" />
        </mxCell>
        <mxCell id="yd0O2rHegaEqOnrl_HZZ-35" style="shape=tableRow;horizontal=0;startSize=0;swimlaneHead=0;swimlaneBody=0;strokeColor=inherit;top=0;left=0;bottom=0;right=0;collapsible=0;dropTarget=0;fillColor=none;points=[[0,0.5],[1,0.5]];portConstraint=eastwest;fontSize=16;" vertex="1" parent="yd0O2rHegaEqOnrl_HZZ-1">
          <mxGeometry width="550" height="62" as="geometry" />
        </mxCell>
        <mxCell id="yd0O2rHegaEqOnrl_HZZ-36" style="shape=partialRectangle;html=1;whiteSpace=wrap;connectable=0;strokeColor=inherit;overflow=hidden;fillColor=none;top=0;left=0;bottom=0;right=0;pointerEvents=1;fontSize=16;" vertex="1" parent="yd0O2rHegaEqOnrl_HZZ-35">
          <mxGeometry width="110" height="62" as="geometry">
            <mxRectangle width="110" height="62" as="alternateBounds" />
          </mxGeometry>
        </mxCell>
        <mxCell id="yd0O2rHegaEqOnrl_HZZ-37" style="shape=partialRectangle;html=1;whiteSpace=wrap;connectable=0;strokeColor=inherit;overflow=hidden;fillColor=none;top=0;left=0;bottom=0;right=0;pointerEvents=1;fontSize=16;" vertex="1" parent="yd0O2rHegaEqOnrl_HZZ-35">
          <mxGeometry x="110" width="110" height="62" as="geometry">
            <mxRectangle width="110" height="62" as="alternateBounds" />
          </mxGeometry>
        </mxCell>
        <mxCell id="yd0O2rHegaEqOnrl_HZZ-38" style="shape=partialRectangle;html=1;whiteSpace=wrap;connectable=0;strokeColor=inherit;overflow=hidden;fillColor=none;top=0;left=0;bottom=0;right=0;pointerEvents=1;fontSize=16;" vertex="1" parent="yd0O2rHegaEqOnrl_HZZ-35">
          <mxGeometry x="220" width="110" height="62" as="geometry">
            <mxRectangle width="110" height="62" as="alternateBounds" />
          </mxGeometry>
        </mxCell>
        <mxCell id="yd0O2rHegaEqOnrl_HZZ-39" style="shape=partialRectangle;html=1;whiteSpace=wrap;connectable=0;strokeColor=inherit;overflow=hidden;fillColor=none;top=0;left=0;bottom=0;right=0;pointerEvents=1;fontSize=16;" vertex="1" parent="yd0O2rHegaEqOnrl_HZZ-35">
          <mxGeometry x="330" width="110" height="62" as="geometry">
            <mxRectangle width="110" height="62" as="alternateBounds" />
          </mxGeometry>
        </mxCell>
        <mxCell id="yd0O2rHegaEqOnrl_HZZ-40" style="shape=partialRectangle;html=1;whiteSpace=wrap;connectable=0;strokeColor=inherit;overflow=hidden;fillColor=none;top=0;left=0;bottom=0;right=0;pointerEvents=1;fontSize=16;" vertex="1" parent="yd0O2rHegaEqOnrl_HZZ-35">
          <mxGeometry x="440" width="110" height="62" as="geometry">
            <mxRectangle width="110" height="62" as="alternateBounds" />
          </mxGeometry>
        </mxCell>
        <mxCell id="yd0O2rHegaEqOnrl_HZZ-29" style="shape=tableRow;horizontal=0;startSize=0;swimlaneHead=0;swimlaneBody=0;strokeColor=inherit;top=0;left=0;bottom=0;right=0;collapsible=0;dropTarget=0;fillColor=none;points=[[0,0.5],[1,0.5]];portConstraint=eastwest;fontSize=16;" vertex="1" parent="yd0O2rHegaEqOnrl_HZZ-1">
          <mxGeometry y="62" width="550" height="61" as="geometry" />
        </mxCell>
        <mxCell id="yd0O2rHegaEqOnrl_HZZ-30" style="shape=partialRectangle;html=1;whiteSpace=wrap;connectable=0;strokeColor=inherit;overflow=hidden;fillColor=none;top=0;left=0;bottom=0;right=0;pointerEvents=1;fontSize=16;" vertex="1" parent="yd0O2rHegaEqOnrl_HZZ-29">
          <mxGeometry width="110" height="61" as="geometry">
            <mxRectangle width="110" height="61" as="alternateBounds" />
          </mxGeometry>
        </mxCell>
        <mxCell id="yd0O2rHegaEqOnrl_HZZ-31" style="shape=partialRectangle;html=1;whiteSpace=wrap;connectable=0;strokeColor=inherit;overflow=hidden;fillColor=none;top=0;left=0;bottom=0;right=0;pointerEvents=1;fontSize=16;" vertex="1" parent="yd0O2rHegaEqOnrl_HZZ-29">
          <mxGeometry x="110" width="110" height="61" as="geometry">
            <mxRectangle width="110" height="61" as="alternateBounds" />
          </mxGeometry>
        </mxCell>
        <mxCell id="yd0O2rHegaEqOnrl_HZZ-32" style="shape=partialRectangle;html=1;whiteSpace=wrap;connectable=0;strokeColor=inherit;overflow=hidden;fillColor=none;top=0;left=0;bottom=0;right=0;pointerEvents=1;fontSize=16;" vertex="1" parent="yd0O2rHegaEqOnrl_HZZ-29">
          <mxGeometry x="220" width="110" height="61" as="geometry">
            <mxRectangle width="110" height="61" as="alternateBounds" />
          </mxGeometry>
        </mxCell>
        <mxCell id="yd0O2rHegaEqOnrl_HZZ-33" style="shape=partialRectangle;html=1;whiteSpace=wrap;connectable=0;strokeColor=inherit;overflow=hidden;fillColor=none;top=0;left=0;bottom=0;right=0;pointerEvents=1;fontSize=16;" vertex="1" parent="yd0O2rHegaEqOnrl_HZZ-29">
          <mxGeometry x="330" width="110" height="61" as="geometry">
            <mxRectangle width="110" height="61" as="alternateBounds" />
          </mxGeometry>
        </mxCell>
        <mxCell id="yd0O2rHegaEqOnrl_HZZ-34" style="shape=partialRectangle;html=1;whiteSpace=wrap;connectable=0;strokeColor=inherit;overflow=hidden;fillColor=none;top=0;left=0;bottom=0;right=0;pointerEvents=1;fontSize=16;" vertex="1" parent="yd0O2rHegaEqOnrl_HZZ-29">
          <mxGeometry x="440" width="110" height="61" as="geometry">
            <mxRectangle width="110" height="61" as="alternateBounds" />
          </mxGeometry>
        </mxCell>
        <mxCell id="yd0O2rHegaEqOnrl_HZZ-23" style="shape=tableRow;horizontal=0;startSize=0;swimlaneHead=0;swimlaneBody=0;strokeColor=inherit;top=0;left=0;bottom=0;right=0;collapsible=0;dropTarget=0;fillColor=none;points=[[0,0.5],[1,0.5]];portConstraint=eastwest;fontSize=16;" vertex="1" parent="yd0O2rHegaEqOnrl_HZZ-1">
          <mxGeometry y="123" width="550" height="62" as="geometry" />
        </mxCell>
        <mxCell id="yd0O2rHegaEqOnrl_HZZ-24" style="shape=partialRectangle;html=1;whiteSpace=wrap;connectable=0;strokeColor=inherit;overflow=hidden;fillColor=none;top=0;left=0;bottom=0;right=0;pointerEvents=1;fontSize=16;" vertex="1" parent="yd0O2rHegaEqOnrl_HZZ-23">
          <mxGeometry width="110" height="62" as="geometry">
            <mxRectangle width="110" height="62" as="alternateBounds" />
          </mxGeometry>
        </mxCell>
        <mxCell id="yd0O2rHegaEqOnrl_HZZ-25" style="shape=partialRectangle;html=1;whiteSpace=wrap;connectable=0;strokeColor=inherit;overflow=hidden;fillColor=none;top=0;left=0;bottom=0;right=0;pointerEvents=1;fontSize=16;" vertex="1" parent="yd0O2rHegaEqOnrl_HZZ-23">
          <mxGeometry x="110" width="110" height="62" as="geometry">
            <mxRectangle width="110" height="62" as="alternateBounds" />
          </mxGeometry>
        </mxCell>
        <mxCell id="yd0O2rHegaEqOnrl_HZZ-26" style="shape=partialRectangle;html=1;whiteSpace=wrap;connectable=0;strokeColor=#82b366;overflow=hidden;fillColor=#d5e8d4;top=0;left=0;bottom=0;right=0;pointerEvents=1;fontSize=16;" vertex="1" parent="yd0O2rHegaEqOnrl_HZZ-23">
          <mxGeometry x="220" width="110" height="62" as="geometry">
            <mxRectangle width="110" height="62" as="alternateBounds" />
          </mxGeometry>
        </mxCell>
        <mxCell id="yd0O2rHegaEqOnrl_HZZ-27" style="shape=partialRectangle;html=1;whiteSpace=wrap;connectable=0;strokeColor=inherit;overflow=hidden;fillColor=none;top=0;left=0;bottom=0;right=0;pointerEvents=1;fontSize=16;" vertex="1" parent="yd0O2rHegaEqOnrl_HZZ-23">
          <mxGeometry x="330" width="110" height="62" as="geometry">
            <mxRectangle width="110" height="62" as="alternateBounds" />
          </mxGeometry>
        </mxCell>
        <mxCell id="yd0O2rHegaEqOnrl_HZZ-28" style="shape=partialRectangle;html=1;whiteSpace=wrap;connectable=0;strokeColor=inherit;overflow=hidden;fillColor=none;top=0;left=0;bottom=0;right=0;pointerEvents=1;fontSize=16;" vertex="1" parent="yd0O2rHegaEqOnrl_HZZ-23">
          <mxGeometry x="440" width="110" height="62" as="geometry">
            <mxRectangle width="110" height="62" as="alternateBounds" />
          </mxGeometry>
        </mxCell>
        <mxCell id="yd0O2rHegaEqOnrl_HZZ-2" value="" style="shape=tableRow;horizontal=0;startSize=0;swimlaneHead=0;swimlaneBody=0;strokeColor=inherit;top=0;left=0;bottom=0;right=0;collapsible=0;dropTarget=0;fillColor=none;points=[[0,0.5],[1,0.5]];portConstraint=eastwest;fontSize=16;" vertex="1" parent="yd0O2rHegaEqOnrl_HZZ-1">
          <mxGeometry y="185" width="550" height="62" as="geometry" />
        </mxCell>
        <mxCell id="yd0O2rHegaEqOnrl_HZZ-20" style="shape=partialRectangle;html=1;whiteSpace=wrap;connectable=0;strokeColor=inherit;overflow=hidden;fillColor=none;top=0;left=0;bottom=0;right=0;pointerEvents=1;fontSize=16;" vertex="1" parent="yd0O2rHegaEqOnrl_HZZ-2">
          <mxGeometry width="110" height="62" as="geometry">
            <mxRectangle width="110" height="62" as="alternateBounds" />
          </mxGeometry>
        </mxCell>
        <mxCell id="yd0O2rHegaEqOnrl_HZZ-14" style="shape=partialRectangle;html=1;whiteSpace=wrap;connectable=0;strokeColor=inherit;overflow=hidden;fillColor=none;top=0;left=0;bottom=0;right=0;pointerEvents=1;fontSize=16;" vertex="1" parent="yd0O2rHegaEqOnrl_HZZ-2">
          <mxGeometry x="110" width="110" height="62" as="geometry">
            <mxRectangle width="110" height="62" as="alternateBounds" />
          </mxGeometry>
        </mxCell>
        <mxCell id="yd0O2rHegaEqOnrl_HZZ-3" value="" style="shape=partialRectangle;html=1;whiteSpace=wrap;connectable=0;strokeColor=inherit;overflow=hidden;fillColor=none;top=0;left=0;bottom=0;right=0;pointerEvents=1;fontSize=16;" vertex="1" parent="yd0O2rHegaEqOnrl_HZZ-2">
          <mxGeometry x="220" width="110" height="62" as="geometry">
            <mxRectangle width="110" height="62" as="alternateBounds" />
          </mxGeometry>
        </mxCell>
        <mxCell id="yd0O2rHegaEqOnrl_HZZ-4" value="" style="shape=partialRectangle;html=1;whiteSpace=wrap;connectable=0;strokeColor=inherit;overflow=hidden;fillColor=none;top=0;left=0;bottom=0;right=0;pointerEvents=1;fontSize=16;" vertex="1" parent="yd0O2rHegaEqOnrl_HZZ-2">
          <mxGeometry x="330" width="110" height="62" as="geometry">
            <mxRectangle width="110" height="62" as="alternateBounds" />
          </mxGeometry>
        </mxCell>
        <mxCell id="yd0O2rHegaEqOnrl_HZZ-5" value="" style="shape=partialRectangle;html=1;whiteSpace=wrap;connectable=0;strokeColor=inherit;overflow=hidden;fillColor=none;top=0;left=0;bottom=0;right=0;pointerEvents=1;fontSize=16;" vertex="1" parent="yd0O2rHegaEqOnrl_HZZ-2">
          <mxGeometry x="440" width="110" height="62" as="geometry">
            <mxRectangle width="110" height="62" as="alternateBounds" />
          </mxGeometry>
        </mxCell>
        <mxCell id="yd0O2rHegaEqOnrl_HZZ-6" value="" style="shape=tableRow;horizontal=0;startSize=0;swimlaneHead=0;swimlaneBody=0;strokeColor=inherit;top=0;left=0;bottom=0;right=0;collapsible=0;dropTarget=0;fillColor=none;points=[[0,0.5],[1,0.5]];portConstraint=eastwest;fontSize=16;" vertex="1" parent="yd0O2rHegaEqOnrl_HZZ-1">
          <mxGeometry y="247" width="550" height="61" as="geometry" />
        </mxCell>
        <mxCell id="yd0O2rHegaEqOnrl_HZZ-21" style="shape=partialRectangle;html=1;whiteSpace=wrap;connectable=0;strokeColor=inherit;overflow=hidden;fillColor=none;top=0;left=0;bottom=0;right=0;pointerEvents=1;fontSize=16;" vertex="1" parent="yd0O2rHegaEqOnrl_HZZ-6">
          <mxGeometry width="110" height="61" as="geometry">
            <mxRectangle width="110" height="61" as="alternateBounds" />
          </mxGeometry>
        </mxCell>
        <mxCell id="yd0O2rHegaEqOnrl_HZZ-15" style="shape=partialRectangle;html=1;whiteSpace=wrap;connectable=0;strokeColor=inherit;overflow=hidden;fillColor=none;top=0;left=0;bottom=0;right=0;pointerEvents=1;fontSize=16;" vertex="1" parent="yd0O2rHegaEqOnrl_HZZ-6">
          <mxGeometry x="110" width="110" height="61" as="geometry">
            <mxRectangle width="110" height="61" as="alternateBounds" />
          </mxGeometry>
        </mxCell>
        <mxCell id="yd0O2rHegaEqOnrl_HZZ-7" value="" style="shape=partialRectangle;html=1;whiteSpace=wrap;connectable=0;strokeColor=inherit;overflow=hidden;fillColor=none;top=0;left=0;bottom=0;right=0;pointerEvents=1;fontSize=16;" vertex="1" parent="yd0O2rHegaEqOnrl_HZZ-6">
          <mxGeometry x="220" width="110" height="61" as="geometry">
            <mxRectangle width="110" height="61" as="alternateBounds" />
          </mxGeometry>
        </mxCell>
        <mxCell id="yd0O2rHegaEqOnrl_HZZ-8" value="" style="shape=partialRectangle;html=1;whiteSpace=wrap;connectable=0;strokeColor=#82b366;overflow=hidden;fillColor=#d5e8d4;top=0;left=0;bottom=0;right=0;pointerEvents=1;fontSize=16;" vertex="1" parent="yd0O2rHegaEqOnrl_HZZ-6">
          <mxGeometry x="330" width="110" height="61" as="geometry">
            <mxRectangle width="110" height="61" as="alternateBounds" />
          </mxGeometry>
        </mxCell>
        <mxCell id="yd0O2rHegaEqOnrl_HZZ-9" value="" style="shape=partialRectangle;html=1;whiteSpace=wrap;connectable=0;strokeColor=inherit;overflow=hidden;fillColor=none;top=0;left=0;bottom=0;right=0;pointerEvents=1;fontSize=16;" vertex="1" parent="yd0O2rHegaEqOnrl_HZZ-6">
          <mxGeometry x="440" width="110" height="61" as="geometry">
            <mxRectangle width="110" height="61" as="alternateBounds" />
          </mxGeometry>
        </mxCell>
        <mxCell id="yd0O2rHegaEqOnrl_HZZ-10" value="" style="shape=tableRow;horizontal=0;startSize=0;swimlaneHead=0;swimlaneBody=0;strokeColor=inherit;top=0;left=0;bottom=0;right=0;collapsible=0;dropTarget=0;fillColor=none;points=[[0,0.5],[1,0.5]];portConstraint=eastwest;fontSize=16;" vertex="1" parent="yd0O2rHegaEqOnrl_HZZ-1">
          <mxGeometry y="308" width="550" height="62" as="geometry" />
        </mxCell>
        <mxCell id="yd0O2rHegaEqOnrl_HZZ-22" style="shape=partialRectangle;html=1;whiteSpace=wrap;connectable=0;strokeColor=inherit;overflow=hidden;fillColor=none;top=0;left=0;bottom=0;right=0;pointerEvents=1;fontSize=16;" vertex="1" parent="yd0O2rHegaEqOnrl_HZZ-10">
          <mxGeometry width="110" height="62" as="geometry">
            <mxRectangle width="110" height="62" as="alternateBounds" />
          </mxGeometry>
        </mxCell>
        <mxCell id="yd0O2rHegaEqOnrl_HZZ-16" style="shape=partialRectangle;html=1;whiteSpace=wrap;connectable=0;strokeColor=inherit;overflow=hidden;fillColor=none;top=0;left=0;bottom=0;right=0;pointerEvents=1;fontSize=16;" vertex="1" parent="yd0O2rHegaEqOnrl_HZZ-10">
          <mxGeometry x="110" width="110" height="62" as="geometry">
            <mxRectangle width="110" height="62" as="alternateBounds" />
          </mxGeometry>
        </mxCell>
        <mxCell id="yd0O2rHegaEqOnrl_HZZ-11" value="" style="shape=partialRectangle;html=1;whiteSpace=wrap;connectable=0;strokeColor=inherit;overflow=hidden;fillColor=none;top=0;left=0;bottom=0;right=0;pointerEvents=1;fontSize=16;" vertex="1" parent="yd0O2rHegaEqOnrl_HZZ-10">
          <mxGeometry x="220" width="110" height="62" as="geometry">
            <mxRectangle width="110" height="62" as="alternateBounds" />
          </mxGeometry>
        </mxCell>
        <mxCell id="yd0O2rHegaEqOnrl_HZZ-12" value="" style="shape=partialRectangle;html=1;whiteSpace=wrap;connectable=0;strokeColor=inherit;overflow=hidden;fillColor=none;top=0;left=0;bottom=0;right=0;pointerEvents=1;fontSize=16;" vertex="1" parent="yd0O2rHegaEqOnrl_HZZ-10">
          <mxGeometry x="330" width="110" height="62" as="geometry">
            <mxRectangle width="110" height="62" as="alternateBounds" />
          </mxGeometry>
        </mxCell>
        <mxCell id="yd0O2rHegaEqOnrl_HZZ-13" value="" style="shape=partialRectangle;html=1;whiteSpace=wrap;connectable=0;strokeColor=inherit;overflow=hidden;fillColor=none;top=0;left=0;bottom=0;right=0;pointerEvents=1;fontSize=16;" vertex="1" parent="yd0O2rHegaEqOnrl_HZZ-10">
          <mxGeometry x="440" width="110" height="62" as="geometry">
            <mxRectangle width="110" height="62" as="alternateBounds" />
          </mxGeometry>
        </mxCell>
        <mxCell id="yd0O2rHegaEqOnrl_HZZ-61" style="edgeStyle=orthogonalEdgeStyle;rounded=0;orthogonalLoop=1;jettySize=auto;html=1;exitX=1;exitY=0.5;exitDx=0;exitDy=0;entryX=0.5;entryY=1;entryDx=0;entryDy=0;" edge="1" parent="1" source="yd0O2rHegaEqOnrl_HZZ-44" target="yd0O2rHegaEqOnrl_HZZ-56">
          <mxGeometry relative="1" as="geometry" />
        </mxCell>
        <mxCell id="yd0O2rHegaEqOnrl_HZZ-44" value="other features" style="rounded=0;whiteSpace=wrap;html=1;" vertex="1" parent="1">
          <mxGeometry x="1040" y="730" width="80" height="40" as="geometry" />
        </mxCell>
        <mxCell id="yd0O2rHegaEqOnrl_HZZ-45" value="park2&lt;div&gt;visits count&lt;/div&gt;" style="rounded=0;whiteSpace=wrap;html=1;" vertex="1" parent="1">
          <mxGeometry x="1530" y="727.5" width="80" height="40" as="geometry" />
        </mxCell>
        <mxCell id="yd0O2rHegaEqOnrl_HZZ-46" value="" style="endArrow=classic;startArrow=classic;html=1;rounded=0;entryX=0;entryY=1.167;entryDx=0;entryDy=0;entryPerimeter=0;" edge="1" parent="1">
          <mxGeometry width="50" height="50" relative="1" as="geometry">
            <mxPoint x="1210" y="709.99" as="sourcePoint" />
            <mxPoint x="1210" y="630" as="targetPoint" />
          </mxGeometry>
        </mxCell>
        <mxCell id="yd0O2rHegaEqOnrl_HZZ-47" value="contrasive" style="text;html=1;align=center;verticalAlign=middle;resizable=0;points=[];autosize=1;strokeColor=none;fillColor=none;" vertex="1" parent="1">
          <mxGeometry x="1205" y="650" width="80" height="30" as="geometry" />
        </mxCell>
        <mxCell id="yd0O2rHegaEqOnrl_HZZ-49" value="" style="edgeStyle=orthogonalEdgeStyle;rounded=0;orthogonalLoop=1;jettySize=auto;html=1;" edge="1" parent="1" source="xa3RoZci5K0r1pljXXm6-49" target="yd0O2rHegaEqOnrl_HZZ-48">
          <mxGeometry relative="1" as="geometry">
            <mxPoint x="1120" y="590" as="sourcePoint" />
            <mxPoint x="1320" y="590" as="targetPoint" />
          </mxGeometry>
        </mxCell>
        <mxCell id="yd0O2rHegaEqOnrl_HZZ-48" value="" style="shape=trapezoid;perimeter=trapezoidPerimeter;whiteSpace=wrap;html=1;fixedSize=1;rotation=90;size=17.5;" vertex="1" parent="1">
          <mxGeometry x="1130" y="560" width="85" height="60" as="geometry" />
        </mxCell>
        <mxCell id="yd0O2rHegaEqOnrl_HZZ-51" value="" style="edgeStyle=orthogonalEdgeStyle;rounded=0;orthogonalLoop=1;jettySize=auto;html=1;" edge="1" parent="1" source="yd0O2rHegaEqOnrl_HZZ-48" target="yd0O2rHegaEqOnrl_HZZ-50">
          <mxGeometry relative="1" as="geometry">
            <mxPoint x="1203" y="590" as="sourcePoint" />
            <mxPoint x="1320" y="590" as="targetPoint" />
          </mxGeometry>
        </mxCell>
        <mxCell id="yd0O2rHegaEqOnrl_HZZ-50" value="" style="shape=trapezoid;perimeter=trapezoidPerimeter;whiteSpace=wrap;html=1;fixedSize=1;rotation=-90;size=17.5;" vertex="1" parent="1">
          <mxGeometry x="1235" y="570" width="85" height="40" as="geometry" />
        </mxCell>
        <mxCell id="yd0O2rHegaEqOnrl_HZZ-53" value="" style="edgeStyle=orthogonalEdgeStyle;rounded=0;orthogonalLoop=1;jettySize=auto;html=1;" edge="1" parent="1" source="yd0O2rHegaEqOnrl_HZZ-50" target="yd0O2rHegaEqOnrl_HZZ-52">
          <mxGeometry relative="1" as="geometry">
            <mxPoint x="1298" y="590" as="sourcePoint" />
            <mxPoint x="1450" y="590" as="targetPoint" />
          </mxGeometry>
        </mxCell>
        <mxCell id="yd0O2rHegaEqOnrl_HZZ-62" style="rounded=0;orthogonalLoop=1;jettySize=auto;html=1;exitX=0.5;exitY=1;exitDx=0;exitDy=0;" edge="1" parent="1" source="yd0O2rHegaEqOnrl_HZZ-52">
          <mxGeometry relative="1" as="geometry">
            <mxPoint x="1410" y="660" as="targetPoint" />
          </mxGeometry>
        </mxCell>
        <mxCell id="yd0O2rHegaEqOnrl_HZZ-52" value="" style="rounded=0;whiteSpace=wrap;html=1;rotation=-90;" vertex="1" parent="1">
          <mxGeometry x="1320" y="572.5" width="50" height="35" as="geometry" />
        </mxCell>
        <mxCell id="yd0O2rHegaEqOnrl_HZZ-54" value="" style="shape=flexArrow;endArrow=classic;html=1;rounded=0;" edge="1" parent="1">
          <mxGeometry width="50" height="50" relative="1" as="geometry">
            <mxPoint x="1200" y="530" as="sourcePoint" />
            <mxPoint x="1230" y="580" as="targetPoint" />
          </mxGeometry>
        </mxCell>
        <mxCell id="yd0O2rHegaEqOnrl_HZZ-55" value="representations" style="rounded=0;whiteSpace=wrap;html=1;" vertex="1" parent="1">
          <mxGeometry x="1095" y="460" width="120" height="60" as="geometry" />
        </mxCell>
        <mxCell id="yd0O2rHegaEqOnrl_HZZ-56" value="" style="shape=trapezoid;perimeter=trapezoidPerimeter;whiteSpace=wrap;html=1;fixedSize=1;rotation=90;size=17.5;" vertex="1" parent="1">
          <mxGeometry x="1130" y="720" width="85" height="60" as="geometry" />
        </mxCell>
        <mxCell id="yd0O2rHegaEqOnrl_HZZ-57" value="" style="edgeStyle=orthogonalEdgeStyle;rounded=0;orthogonalLoop=1;jettySize=auto;html=1;" edge="1" parent="1" source="yd0O2rHegaEqOnrl_HZZ-56" target="yd0O2rHegaEqOnrl_HZZ-58">
          <mxGeometry relative="1" as="geometry">
            <mxPoint x="1203" y="750" as="sourcePoint" />
            <mxPoint x="1320" y="750" as="targetPoint" />
          </mxGeometry>
        </mxCell>
        <mxCell id="yd0O2rHegaEqOnrl_HZZ-58" value="" style="shape=trapezoid;perimeter=trapezoidPerimeter;whiteSpace=wrap;html=1;fixedSize=1;rotation=-90;size=17.5;" vertex="1" parent="1">
          <mxGeometry x="1235" y="730" width="85" height="40" as="geometry" />
        </mxCell>
        <mxCell id="yd0O2rHegaEqOnrl_HZZ-59" value="" style="edgeStyle=orthogonalEdgeStyle;rounded=0;orthogonalLoop=1;jettySize=auto;html=1;" edge="1" parent="1" source="yd0O2rHegaEqOnrl_HZZ-58" target="yd0O2rHegaEqOnrl_HZZ-60">
          <mxGeometry relative="1" as="geometry">
            <mxPoint x="1298" y="750" as="sourcePoint" />
            <mxPoint x="1450" y="750" as="targetPoint" />
          </mxGeometry>
        </mxCell>
        <mxCell id="yd0O2rHegaEqOnrl_HZZ-63" style="rounded=0;orthogonalLoop=1;jettySize=auto;html=1;exitX=0.5;exitY=1;exitDx=0;exitDy=0;" edge="1" parent="1" source="yd0O2rHegaEqOnrl_HZZ-60">
          <mxGeometry relative="1" as="geometry">
            <mxPoint x="1410" y="680" as="targetPoint" />
          </mxGeometry>
        </mxCell>
        <mxCell id="yd0O2rHegaEqOnrl_HZZ-60" value="" style="rounded=0;whiteSpace=wrap;html=1;rotation=-90;" vertex="1" parent="1">
          <mxGeometry x="1320" y="732.5" width="50" height="35" as="geometry" />
        </mxCell>
      </root>
    </mxGraphModel>
  </diagram>
</mxfile>
